<?xml version="1.0" encoding="UTF-8"?>
<svg xmlns="http://www.w3.org/2000/svg" xmlns:xlink="http://www.w3.org/1999/xlink" width="150pt" height="149.999998pt" viewBox="0 0 150 149.999998" version="1.2">
<defs>
<clipPath id="clip1">
  <path d="M 10.09375 26.316406 L 112.589844 26.316406 L 112.589844 122.257812 L 10.09375 122.257812 Z M 10.09375 26.316406 "/>
</clipPath>
<clipPath id="clip2">
  <path d="M 103 28 L 124 28 L 124 93 L 103 93 Z M 103 28 "/>
</clipPath>
<clipPath id="clip3">
  <path d="M 87.953125 24.554688 L 157.894531 33.394531 L 145.199219 133.847656 L 75.253906 125.003906 Z M 87.953125 24.554688 "/>
</clipPath>
<clipPath id="clip4">
  <path d="M 157.894531 33.394531 L 87.953125 24.554688 L 75.253906 125.003906 L 145.199219 133.847656 Z M 157.894531 33.394531 "/>
</clipPath>
<clipPath id="clip5">
  <path d="M 157.894531 33.394531 L 87.953125 24.554688 L 75.210938 125.355469 L 145.15625 134.195312 Z M 157.894531 33.394531 "/>
</clipPath>
<clipPath id="clip6">
  <path d="M 108 33 L 110 33 L 110 35 L 108 35 Z M 108 33 "/>
</clipPath>
<clipPath id="clip7">
  <path d="M 87.953125 24.554688 L 157.894531 33.394531 L 145.199219 133.847656 L 75.253906 125.003906 Z M 87.953125 24.554688 "/>
</clipPath>
<clipPath id="clip8">
  <path d="M 157.894531 33.394531 L 87.953125 24.554688 L 75.253906 125.003906 L 145.199219 133.847656 Z M 157.894531 33.394531 "/>
</clipPath>
<clipPath id="clip9">
  <path d="M 157.894531 33.394531 L 87.953125 24.554688 L 75.210938 125.355469 L 145.15625 134.195312 Z M 157.894531 33.394531 "/>
</clipPath>
<clipPath id="clip10">
  <path d="M 107 38 L 110 38 L 110 40 L 107 40 Z M 107 38 "/>
</clipPath>
<clipPath id="clip11">
  <path d="M 87.953125 24.554688 L 157.894531 33.394531 L 145.199219 133.847656 L 75.253906 125.003906 Z M 87.953125 24.554688 "/>
</clipPath>
<clipPath id="clip12">
  <path d="M 157.894531 33.394531 L 87.953125 24.554688 L 75.253906 125.003906 L 145.199219 133.847656 Z M 157.894531 33.394531 "/>
</clipPath>
<clipPath id="clip13">
  <path d="M 157.894531 33.394531 L 87.953125 24.554688 L 75.210938 125.355469 L 145.15625 134.195312 Z M 157.894531 33.394531 "/>
</clipPath>
<clipPath id="clip14">
  <path d="M 115 75 L 116 75 L 116 76 L 115 76 Z M 115 75 "/>
</clipPath>
<clipPath id="clip15">
  <path d="M 87.953125 24.554688 L 157.894531 33.394531 L 145.199219 133.847656 L 75.253906 125.003906 Z M 87.953125 24.554688 "/>
</clipPath>
<clipPath id="clip16">
  <path d="M 157.894531 33.394531 L 87.953125 24.554688 L 75.253906 125.003906 L 145.199219 133.847656 Z M 157.894531 33.394531 "/>
</clipPath>
<clipPath id="clip17">
  <path d="M 157.894531 33.394531 L 87.953125 24.554688 L 75.210938 125.355469 L 145.15625 134.195312 Z M 157.894531 33.394531 "/>
</clipPath>
<clipPath id="clip18">
  <path d="M 116 78 L 118 78 L 118 80 L 116 80 Z M 116 78 "/>
</clipPath>
<clipPath id="clip19">
  <path d="M 87.953125 24.554688 L 157.894531 33.394531 L 145.199219 133.847656 L 75.253906 125.003906 Z M 87.953125 24.554688 "/>
</clipPath>
<clipPath id="clip20">
  <path d="M 157.894531 33.394531 L 87.953125 24.554688 L 75.253906 125.003906 L 145.199219 133.847656 Z M 157.894531 33.394531 "/>
</clipPath>
<clipPath id="clip21">
  <path d="M 157.894531 33.394531 L 87.953125 24.554688 L 75.210938 125.355469 L 145.15625 134.195312 Z M 157.894531 33.394531 "/>
</clipPath>
<clipPath id="clip22">
  <path d="M 117 82 L 119 82 L 119 84 L 117 84 Z M 117 82 "/>
</clipPath>
<clipPath id="clip23">
  <path d="M 87.953125 24.554688 L 157.894531 33.394531 L 145.199219 133.847656 L 75.253906 125.003906 Z M 87.953125 24.554688 "/>
</clipPath>
<clipPath id="clip24">
  <path d="M 157.894531 33.394531 L 87.953125 24.554688 L 75.253906 125.003906 L 145.199219 133.847656 Z M 157.894531 33.394531 "/>
</clipPath>
<clipPath id="clip25">
  <path d="M 157.894531 33.394531 L 87.953125 24.554688 L 75.210938 125.355469 L 145.15625 134.195312 Z M 157.894531 33.394531 "/>
</clipPath>
<clipPath id="clip26">
  <path d="M 114 90 L 123 90 L 123 96 L 114 96 Z M 114 90 "/>
</clipPath>
<clipPath id="clip27">
  <path d="M 87.953125 24.554688 L 157.894531 33.394531 L 145.199219 133.847656 L 75.253906 125.003906 Z M 87.953125 24.554688 "/>
</clipPath>
<clipPath id="clip28">
  <path d="M 157.894531 33.394531 L 87.953125 24.554688 L 75.253906 125.003906 L 145.199219 133.847656 Z M 157.894531 33.394531 "/>
</clipPath>
<clipPath id="clip29">
  <path d="M 157.894531 33.394531 L 87.953125 24.554688 L 75.210938 125.355469 L 145.15625 134.195312 Z M 157.894531 33.394531 "/>
</clipPath>
<clipPath id="clip30">
  <path d="M 116 94 L 145 94 L 145 132 L 116 132 Z M 116 94 "/>
</clipPath>
<clipPath id="clip31">
  <path d="M 87.953125 24.554688 L 157.894531 33.394531 L 145.199219 133.847656 L 75.253906 125.003906 Z M 87.953125 24.554688 "/>
</clipPath>
<clipPath id="clip32">
  <path d="M 157.894531 33.394531 L 87.953125 24.554688 L 75.253906 125.003906 L 145.199219 133.847656 Z M 157.894531 33.394531 "/>
</clipPath>
<clipPath id="clip33">
  <path d="M 157.894531 33.394531 L 87.953125 24.554688 L 75.210938 125.355469 L 145.15625 134.195312 Z M 157.894531 33.394531 "/>
</clipPath>
<clipPath id="clip34">
  <path d="M 124 104 L 127 104 L 127 108 L 124 108 Z M 124 104 "/>
</clipPath>
<clipPath id="clip35">
  <path d="M 87.953125 24.554688 L 157.894531 33.394531 L 145.199219 133.847656 L 75.253906 125.003906 Z M 87.953125 24.554688 "/>
</clipPath>
<clipPath id="clip36">
  <path d="M 157.894531 33.394531 L 87.953125 24.554688 L 75.253906 125.003906 L 145.199219 133.847656 Z M 157.894531 33.394531 "/>
</clipPath>
<clipPath id="clip37">
  <path d="M 157.894531 33.394531 L 87.953125 24.554688 L 75.210938 125.355469 L 145.15625 134.195312 Z M 157.894531 33.394531 "/>
</clipPath>
<clipPath id="clip38">
  <path d="M 130 112 L 133 112 L 133 116 L 130 116 Z M 130 112 "/>
</clipPath>
<clipPath id="clip39">
  <path d="M 87.953125 24.554688 L 157.894531 33.394531 L 145.199219 133.847656 L 75.253906 125.003906 Z M 87.953125 24.554688 "/>
</clipPath>
<clipPath id="clip40">
  <path d="M 157.894531 33.394531 L 87.953125 24.554688 L 75.253906 125.003906 L 145.199219 133.847656 Z M 157.894531 33.394531 "/>
</clipPath>
<clipPath id="clip41">
  <path d="M 157.894531 33.394531 L 87.953125 24.554688 L 75.210938 125.355469 L 145.15625 134.195312 Z M 157.894531 33.394531 "/>
</clipPath>
<clipPath id="clip42">
  <path d="M 133 117 L 136 117 L 136 121 L 133 121 Z M 133 117 "/>
</clipPath>
<clipPath id="clip43">
  <path d="M 87.953125 24.554688 L 157.894531 33.394531 L 145.199219 133.847656 L 75.253906 125.003906 Z M 87.953125 24.554688 "/>
</clipPath>
<clipPath id="clip44">
  <path d="M 157.894531 33.394531 L 87.953125 24.554688 L 75.253906 125.003906 L 145.199219 133.847656 Z M 157.894531 33.394531 "/>
</clipPath>
<clipPath id="clip45">
  <path d="M 157.894531 33.394531 L 87.953125 24.554688 L 75.210938 125.355469 L 145.15625 134.195312 Z M 157.894531 33.394531 "/>
</clipPath>
<clipPath id="clip46">
  <path d="M 83 27 L 147 27 L 147 134 L 83 134 Z M 83 27 "/>
</clipPath>
<clipPath id="clip47">
  <path d="M 87.953125 24.554688 L 157.894531 33.394531 L 145.199219 133.847656 L 75.253906 125.003906 Z M 87.953125 24.554688 "/>
</clipPath>
<clipPath id="clip48">
  <path d="M 157.894531 33.394531 L 87.953125 24.554688 L 75.253906 125.003906 L 145.199219 133.847656 Z M 157.894531 33.394531 "/>
</clipPath>
<clipPath id="clip49">
  <path d="M 157.894531 33.394531 L 87.953125 24.554688 L 75.210938 125.355469 L 145.15625 134.195312 Z M 157.894531 33.394531 "/>
</clipPath>
<clipPath id="clip50">
  <path d="M 157.886719 33.394531 L 87.949219 24.554688 L 75.210938 125.347656 L 145.148438 134.1875 Z M 157.886719 33.394531 "/>
</clipPath>
<clipPath id="clip51">
  <path d="M 157.886719 33.394531 L 87.964844 24.554688 L 75.226562 125.328125 L 145.148438 134.167969 Z M 157.886719 33.394531 "/>
</clipPath>
<clipPath id="clip52">
  <path d="M 85 34 L 109 34 L 109 85 L 85 85 Z M 85 34 "/>
</clipPath>
<clipPath id="clip53">
  <path d="M 87.953125 24.554688 L 157.894531 33.394531 L 145.199219 133.847656 L 75.253906 125.003906 Z M 87.953125 24.554688 "/>
</clipPath>
<clipPath id="clip54">
  <path d="M 157.894531 33.394531 L 87.953125 24.554688 L 75.253906 125.003906 L 145.199219 133.847656 Z M 157.894531 33.394531 "/>
</clipPath>
<clipPath id="clip55">
  <path d="M 157.894531 33.394531 L 87.953125 24.554688 L 75.210938 125.355469 L 145.15625 134.195312 Z M 157.894531 33.394531 "/>
</clipPath>
</defs>
<g id="surface1">
<path style=" stroke:none;fill-rule:nonzero;fill:rgb(94.119263%,43.139648%,9.01947%);fill-opacity:1;" d="M 16.351562 87.136719 C 13.464844 88.441406 11.847656 89.890625 11.847656 91.421875 C 11.847656 97.097656 34.007812 101.699219 61.339844 101.699219 C 88.675781 101.699219 110.835938 97.097656 110.835938 91.421875 C 110.835938 89.890625 109.21875 88.441406 106.332031 87.136719 C 98.511719 90.675781 81.3125 93.132812 61.339844 93.132812 C 41.371094 93.132812 24.171875 90.675781 16.351562 87.136719 Z M 16.351562 87.136719 "/>
<path style=" stroke:none;fill-rule:nonzero;fill:rgb(100%,80.389404%,22.749329%);fill-opacity:1;" d="M 61.339844 101.699219 C 34.007812 101.699219 11.847656 97.097656 11.847656 91.421875 L 11.847656 110.265625 C 11.847656 115.945312 34.007812 120.546875 61.339844 120.546875 C 88.675781 120.546875 110.835938 115.945312 110.835938 110.265625 L 110.835938 91.421875 C 110.835938 97.097656 88.675781 101.699219 61.339844 101.699219 Z M 61.339844 101.699219 "/>
<path style=" stroke:none;fill-rule:nonzero;fill:rgb(94.119263%,43.139648%,9.01947%);fill-opacity:1;" d="M 16.351562 59.726562 C 13.464844 61.03125 11.847656 62.480469 11.847656 64.007812 C 11.847656 69.6875 34.007812 74.289062 61.339844 74.289062 C 88.675781 74.289062 110.835938 69.6875 110.835938 64.007812 C 110.835938 62.480469 109.21875 61.03125 106.332031 59.726562 C 98.511719 63.261719 81.3125 65.722656 61.339844 65.722656 C 41.371094 65.722656 24.171875 63.261719 16.351562 59.726562 Z M 16.351562 59.726562 "/>
<path style=" stroke:none;fill-rule:nonzero;fill:rgb(100%,80.389404%,22.749329%);fill-opacity:1;" d="M 61.339844 46.875 C 34.007812 46.875 11.847656 42.273438 11.847656 36.597656 L 11.847656 55.441406 C 11.847656 56.972656 13.464844 58.421875 16.351562 59.726562 C 24.171875 63.261719 41.371094 65.722656 61.339844 65.722656 C 81.3125 65.722656 98.511719 63.261719 106.332031 59.726562 C 109.21875 58.421875 110.835938 56.972656 110.835938 55.441406 L 110.835938 36.597656 C 110.835938 42.273438 88.675781 46.875 61.339844 46.875 Z M 61.339844 46.875 "/>
<path style=" stroke:none;fill-rule:nonzero;fill:rgb(100%,80.389404%,22.749329%);fill-opacity:1;" d="M 61.339844 74.289062 C 34.007812 74.289062 11.847656 69.6875 11.847656 64.007812 L 11.847656 82.855469 C 11.847656 84.382812 13.464844 85.832031 16.351562 87.136719 C 24.171875 90.675781 41.371094 93.132812 61.339844 93.132812 C 81.3125 93.132812 98.511719 90.675781 106.332031 87.136719 C 109.21875 85.832031 110.835938 84.382812 110.835938 82.855469 L 110.835938 64.007812 C 110.835938 69.6875 88.675781 74.289062 61.339844 74.289062 Z M 61.339844 74.289062 "/>
<path style=" stroke:none;fill-rule:nonzero;fill:rgb(100%,80.389404%,22.749329%);fill-opacity:1;" d="M 61.339844 28.03125 C 34.007812 28.03125 11.847656 30.917969 11.847656 36.597656 C 11.847656 42.273438 34.007812 46.875 61.339844 46.875 C 88.675781 46.875 110.835938 42.273438 110.835938 36.597656 C 110.835938 30.917969 88.675781 28.03125 61.339844 28.03125 Z M 61.339844 28.03125 "/>
<g clip-path="url(#clip1)" clip-rule="nonzero">
<path style=" stroke:none;fill-rule:nonzero;fill:rgb(0%,0%,0%);fill-opacity:1;" d="M 61.339844 26.316406 C 42.21875 26.316406 10.140625 27.652344 10.140625 36.597656 L 10.140625 55.441406 C 10.140625 57.070312 11.144531 58.488281 12.863281 59.726562 C 11.046875 61.007812 10.140625 62.421875 10.140625 64.007812 L 10.140625 82.855469 C 10.140625 84.480469 11.144531 85.898438 12.863281 87.136719 C 11.046875 88.421875 10.140625 89.835938 10.140625 91.421875 L 10.140625 110.265625 C 10.140625 119.753906 43.632812 122.257812 61.339844 122.257812 C 79.050781 122.257812 112.542969 119.753906 112.542969 110.265625 L 112.542969 91.421875 C 112.542969 89.835938 111.632812 88.421875 109.820312 87.136719 C 111.539062 85.898438 112.542969 84.480469 112.542969 82.855469 L 112.542969 64.007812 C 112.542969 62.421875 111.632812 61.007812 109.820312 59.726562 C 111.539062 58.488281 112.542969 57.070312 112.542969 55.441406 L 112.542969 36.597656 C 112.542969 27.652344 80.464844 26.316406 61.339844 26.316406 Z M 13.550781 41.347656 C 22.515625 46.957031 47.058594 48.589844 61.339844 48.589844 C 75.625 48.589844 100.167969 46.957031 109.132812 41.347656 L 109.132812 55.441406 C 109.132812 58.351562 92.261719 64.007812 61.339844 64.007812 C 30.421875 64.007812 13.550781 58.351562 13.550781 55.441406 Z M 13.550781 68.757812 C 22.515625 74.367188 47.058594 76 61.339844 76 C 75.625 76 100.167969 74.367188 109.132812 68.757812 L 109.132812 82.855469 C 109.132812 85.761719 92.261719 91.421875 61.339844 91.421875 C 30.421875 91.421875 13.550781 85.761719 13.550781 82.855469 Z M 61.339844 118.832031 C 30.421875 118.832031 13.550781 113.171875 13.550781 110.265625 L 13.550781 96.171875 C 22.515625 101.78125 47.058594 103.414062 61.339844 103.414062 C 75.625 103.414062 100.167969 101.78125 109.132812 96.171875 L 109.132812 110.265625 C 109.132812 113.171875 92.261719 118.832031 61.339844 118.832031 Z M 109.132812 91.421875 C 109.132812 94.328125 92.261719 99.988281 61.339844 99.988281 C 30.421875 99.988281 13.550781 94.328125 13.550781 91.421875 C 13.550781 91.035156 14.179688 90.132812 16.363281 89.035156 C 26.890625 93.496094 48.351562 94.847656 61.339844 94.847656 C 74.332031 94.847656 95.792969 93.496094 106.320312 89.035156 C 108.503906 90.132812 109.132812 91.035156 109.132812 91.421875 Z M 109.132812 64.007812 C 109.132812 66.914062 92.261719 72.574219 61.339844 72.574219 C 30.421875 72.574219 13.550781 66.914062 13.550781 64.007812 C 13.550781 63.625 14.179688 62.71875 16.363281 61.621094 C 26.890625 66.082031 48.351562 67.433594 61.339844 67.433594 C 74.332031 67.433594 95.792969 66.082031 106.320312 61.621094 C 108.503906 62.71875 109.132812 63.625 109.132812 64.007812 Z M 61.339844 45.164062 C 30.421875 45.164062 13.550781 39.503906 13.550781 36.597656 C 13.550781 34.359375 25.234375 29.742188 61.339844 29.742188 C 97.449219 29.742188 109.132812 34.359375 109.132812 36.597656 C 109.132812 39.503906 92.261719 45.164062 61.339844 45.164062 Z M 61.339844 45.164062 "/>
</g>
<path style=" stroke:none;fill-rule:nonzero;fill:rgb(0%,0%,0%);fill-opacity:1;" d="M 54.515625 53.730469 L 68.167969 53.730469 L 68.167969 57.15625 L 54.515625 57.15625 Z M 54.515625 53.730469 "/>
<path style=" stroke:none;fill-rule:nonzero;fill:rgb(0%,0%,0%);fill-opacity:1;" d="M 54.515625 81.140625 L 68.167969 81.140625 L 68.167969 84.566406 L 54.515625 84.566406 Z M 54.515625 81.140625 "/>
<path style=" stroke:none;fill-rule:nonzero;fill:rgb(0%,0%,0%);fill-opacity:1;" d="M 54.515625 108.554688 L 68.167969 108.554688 L 68.167969 111.980469 L 54.515625 111.980469 Z M 54.515625 108.554688 "/>
<g clip-path="url(#clip2)" clip-rule="nonzero">
<g clip-path="url(#clip3)" clip-rule="nonzero">
<g clip-path="url(#clip4)" clip-rule="nonzero">
<g clip-path="url(#clip5)" clip-rule="nonzero">
<path style=" stroke:none;fill-rule:evenodd;fill:rgb(81.959534%,80.778503%,75.689697%);fill-opacity:1;" d="M 117.515625 83.175781 C 118.070312 83.136719 118.191406 82.527344 118.722656 82.453125 C 119.371094 83.054688 117.613281 84.492188 117.515625 83.175781 M 117.25 79.398438 C 116.855469 79.410156 116.667969 79.691406 116.226562 79.644531 C 116.210938 79.542969 116.253906 79.398438 116.136719 79.382812 C 116.261719 78.796875 117.40625 78.382812 117.25 79.398438 M 115.699219 75.957031 C 115.308594 76.085938 115.074219 75.898438 115.152344 75.386719 C 115.324219 75.371094 115.410156 75.242188 115.65625 75.328125 C 115.742188 75.480469 115.777344 75.675781 115.699219 75.957031 M 109.191406 39.183594 C 108.984375 39.960938 108.148438 39.179688 107.714844 39.125 C 107.859375 38.789062 107.582031 38.78125 107.667969 38.492188 C 108.136719 38.085938 109.03125 38.679688 109.191406 39.183594 M 109.765625 34.640625 C 108.957031 34.488281 108.144531 33.699219 108.855469 33.027344 C 109.550781 33.257812 109.941406 33.730469 109.765625 34.640625 M 113.9375 92.835938 C 114.605469 93.136719 115.773438 91.960938 116.597656 91.421875 C 117.03125 91.140625 117.585938 90.925781 118.0625 90.609375 C 119.042969 89.960938 120.121094 89.003906 121.726562 89.074219 C 122.679688 87.90625 123.453125 86.257812 123.035156 84.621094 C 122.652344 83.117188 121.621094 81.792969 120.953125 80.488281 C 120.296875 79.207031 119.605469 77.835938 119.011719 76.25 C 117.929688 73.363281 116.5625 70.316406 115.796875 67.355469 C 114.582031 62.660156 113.859375 56.464844 113.558594 51.71875 C 113.152344 45.289062 116.984375 36.28125 113.757812 31.523438 C 113.476562 31.113281 113.097656 30.890625 112.765625 30.527344 C 111.234375 28.835938 107.644531 27.625 105.886719 30.03125 C 105.195312 30.976562 104.699219 33.105469 104.441406 34.589844 C 103.933594 37.550781 103.652344 39.84375 103.601562 42.222656 C 103.414062 51.050781 104.769531 60.328125 106.53125 69.054688 C 107.390625 73.308594 107.949219 77.769531 109.539062 81.542969 C 111.203125 85.484375 112.269531 89.347656 113.9375 92.835938 "/>
</g>
</g>
</g>
</g>
<g clip-path="url(#clip6)" clip-rule="nonzero">
<g clip-path="url(#clip7)" clip-rule="nonzero">
<g clip-path="url(#clip8)" clip-rule="nonzero">
<g clip-path="url(#clip9)" clip-rule="nonzero">
<path style=" stroke:none;fill-rule:evenodd;fill:rgb(0%,0%,0%);fill-opacity:1;" d="M 108.855469 33.027344 C 108.144531 33.699219 108.957031 34.488281 109.765625 34.640625 C 109.941406 33.730469 109.550781 33.257812 108.855469 33.027344 "/>
</g>
</g>
</g>
</g>
<g clip-path="url(#clip10)" clip-rule="nonzero">
<g clip-path="url(#clip11)" clip-rule="nonzero">
<g clip-path="url(#clip12)" clip-rule="nonzero">
<g clip-path="url(#clip13)" clip-rule="nonzero">
<path style=" stroke:none;fill-rule:evenodd;fill:rgb(0%,0%,0%);fill-opacity:1;" d="M 107.667969 38.492188 C 107.582031 38.78125 107.859375 38.789062 107.714844 39.125 C 108.148438 39.179688 108.984375 39.960938 109.191406 39.1875 C 109.03125 38.679688 108.136719 38.085938 107.667969 38.492188 "/>
</g>
</g>
</g>
</g>
<g clip-path="url(#clip14)" clip-rule="nonzero">
<g clip-path="url(#clip15)" clip-rule="nonzero">
<g clip-path="url(#clip16)" clip-rule="nonzero">
<g clip-path="url(#clip17)" clip-rule="nonzero">
<path style=" stroke:none;fill-rule:evenodd;fill:rgb(0%,0%,0%);fill-opacity:1;" d="M 115.65625 75.328125 C 115.410156 75.242188 115.324219 75.371094 115.152344 75.386719 C 115.074219 75.898438 115.308594 76.085938 115.699219 75.957031 C 115.777344 75.675781 115.742188 75.480469 115.65625 75.328125 "/>
</g>
</g>
</g>
</g>
<g clip-path="url(#clip18)" clip-rule="nonzero">
<g clip-path="url(#clip19)" clip-rule="nonzero">
<g clip-path="url(#clip20)" clip-rule="nonzero">
<g clip-path="url(#clip21)" clip-rule="nonzero">
<path style=" stroke:none;fill-rule:evenodd;fill:rgb(0%,0%,0%);fill-opacity:1;" d="M 116.136719 79.382812 C 116.253906 79.398438 116.210938 79.542969 116.226562 79.644531 C 116.667969 79.691406 116.855469 79.410156 117.25 79.398438 C 117.40625 78.382812 116.261719 78.796875 116.136719 79.382812 "/>
</g>
</g>
</g>
</g>
<g clip-path="url(#clip22)" clip-rule="nonzero">
<g clip-path="url(#clip23)" clip-rule="nonzero">
<g clip-path="url(#clip24)" clip-rule="nonzero">
<g clip-path="url(#clip25)" clip-rule="nonzero">
<path style=" stroke:none;fill-rule:evenodd;fill:rgb(0%,0%,0%);fill-opacity:1;" d="M 118.722656 82.453125 C 118.191406 82.527344 118.070312 83.136719 117.515625 83.175781 C 117.613281 84.492188 119.371094 83.054688 118.722656 82.453125 "/>
</g>
</g>
</g>
</g>
<g clip-path="url(#clip26)" clip-rule="nonzero">
<g clip-path="url(#clip27)" clip-rule="nonzero">
<g clip-path="url(#clip28)" clip-rule="nonzero">
<g clip-path="url(#clip29)" clip-rule="nonzero">
<path style=" stroke:none;fill-rule:evenodd;fill:rgb(100%,85.488892%,0%);fill-opacity:1;" d="M 114.609375 94.417969 C 114.523438 95.070312 115.210938 95.125 115.320312 95.628906 C 117.792969 94.355469 120.152344 92.941406 122.957031 92.101562 C 122.539062 91.542969 122.496094 90.6875 121.679688 90.441406 C 121.488281 90.671875 121.058594 90.589844 121.097656 91.117188 C 118.621094 91.8125 116.597656 93.09375 114.609375 94.417969 "/>
</g>
</g>
</g>
</g>
<g clip-path="url(#clip30)" clip-rule="nonzero">
<g clip-path="url(#clip31)" clip-rule="nonzero">
<g clip-path="url(#clip32)" clip-rule="nonzero">
<g clip-path="url(#clip33)" clip-rule="nonzero">
<path style=" stroke:none;fill-rule:evenodd;fill:rgb(77.648926%,72.938538%,52.938843%);fill-opacity:1;" d="M 135.851562 117.574219 C 135.328125 118.75 134.808594 119.9375 133.648438 120.289062 C 133.625 120.046875 133.328125 120.023438 133.484375 119.644531 C 134.65625 119.535156 134.699219 117.238281 135.851562 117.574219 M 132.6875 113.179688 C 131.5625 113.347656 131.808594 116.023438 130.320312 115.25 C 131.15625 114.523438 131.335938 112.949219 132.507812 112.65625 C 132.476562 112.898438 132.820312 112.855469 132.6875 113.179688 M 126.605469 104.421875 C 125.769531 105.148438 125.664062 106.820312 124.738281 107.429688 C 124.148438 106.5625 125.667969 105.125 126.027344 104.097656 C 126.183594 104.113281 126.214844 103.960938 126.410156 104.023438 C 126.394531 104.214844 126.335938 104.445312 126.605469 104.421875 M 116.203125 97.488281 C 117.714844 102.167969 120.710938 106.148438 122.59375 110.65625 C 123.195312 112.09375 124.039062 113.496094 124.78125 114.925781 C 126.316406 117.878906 127.664062 120.472656 129.277344 123.480469 C 130.960938 126.617188 133.386719 132.710938 138.183594 131.472656 C 140.183594 130.957031 143.589844 129.410156 144.171875 128.234375 C 145.199219 126.167969 143.832031 123.128906 143.210938 121.125 C 141.792969 116.546875 139.878906 113.363281 137.625 109.433594 C 137.089844 108.5 136.542969 107.601562 135.984375 106.730469 C 134.429688 104.320312 133.136719 101.902344 131.574219 99.433594 C 130.410156 97.589844 128.710938 96.167969 127.222656 94.636719 C 125.636719 93.265625 122.511719 94.476562 120.84375 95.078125 C 119.222656 95.667969 117.1875 96.445312 116.203125 97.488281 "/>
</g>
</g>
</g>
</g>
<g clip-path="url(#clip34)" clip-rule="nonzero">
<g clip-path="url(#clip35)" clip-rule="nonzero">
<g clip-path="url(#clip36)" clip-rule="nonzero">
<g clip-path="url(#clip37)" clip-rule="nonzero">
<path style=" stroke:none;fill-rule:evenodd;fill:rgb(0%,0%,0%);fill-opacity:1;" d="M 126.410156 104.023438 C 126.214844 103.960938 126.183594 104.113281 126.027344 104.097656 C 125.667969 105.125 124.148438 106.5625 124.738281 107.429688 C 125.664062 106.820312 125.769531 105.148438 126.605469 104.421875 C 126.335938 104.445312 126.394531 104.214844 126.410156 104.023438 "/>
</g>
</g>
</g>
</g>
<g clip-path="url(#clip38)" clip-rule="nonzero">
<g clip-path="url(#clip39)" clip-rule="nonzero">
<g clip-path="url(#clip40)" clip-rule="nonzero">
<g clip-path="url(#clip41)" clip-rule="nonzero">
<path style=" stroke:none;fill-rule:evenodd;fill:rgb(0%,0%,0%);fill-opacity:1;" d="M 132.507812 112.65625 C 131.335938 112.949219 131.15625 114.523438 130.320312 115.25 C 131.808594 116.023438 131.5625 113.347656 132.6875 113.179688 C 132.820312 112.855469 132.476562 112.898438 132.507812 112.65625 "/>
</g>
</g>
</g>
</g>
<g clip-path="url(#clip42)" clip-rule="nonzero">
<g clip-path="url(#clip43)" clip-rule="nonzero">
<g clip-path="url(#clip44)" clip-rule="nonzero">
<g clip-path="url(#clip45)" clip-rule="nonzero">
<path style=" stroke:none;fill-rule:evenodd;fill:rgb(0%,0%,0%);fill-opacity:1;" d="M 133.484375 119.644531 C 133.328125 120.023438 133.625 120.046875 133.648438 120.289062 C 134.808594 119.9375 135.328125 118.75 135.851562 117.574219 C 134.699219 117.238281 134.65625 119.535156 133.484375 119.644531 "/>
</g>
</g>
</g>
</g>
<g clip-path="url(#clip46)" clip-rule="nonzero">
<g clip-path="url(#clip47)" clip-rule="nonzero">
<g clip-path="url(#clip48)" clip-rule="nonzero">
<g clip-path="url(#clip49)" clip-rule="nonzero">
<g clip-path="url(#clip50)" clip-rule="nonzero">
<g clip-path="url(#clip51)" clip-rule="nonzero">
<path style=" stroke:none;fill-rule:evenodd;fill:rgb(0%,0%,0%);fill-opacity:1;" d="M 120.84375 95.078125 C 122.511719 94.476562 125.636719 93.265625 127.222656 94.636719 C 128.710938 96.167969 130.410156 97.589844 131.574219 99.433594 C 133.136719 101.902344 134.429688 104.320312 135.984375 106.730469 C 136.542969 107.601562 137.089844 108.5 137.625 109.433594 C 139.878906 113.363281 141.792969 116.546875 143.210938 121.125 C 143.832031 123.128906 145.199219 126.167969 144.171875 128.234375 C 143.589844 129.410156 140.183594 130.957031 138.183594 131.472656 C 133.386719 132.710938 130.960938 126.617188 129.277344 123.480469 C 127.664062 120.472656 126.316406 117.878906 124.78125 114.925781 C 124.039062 113.496094 123.195312 112.09375 122.59375 110.65625 C 120.710938 106.148438 117.714844 102.167969 116.203125 97.488281 C 117.1875 96.445312 119.222656 95.667969 120.84375 95.078125 M 121.097656 91.117188 C 121.058594 90.589844 121.488281 90.671875 121.679688 90.441406 C 122.496094 90.6875 122.539062 91.542969 122.957031 92.101562 C 120.152344 92.941406 117.792969 94.355469 115.320312 95.628906 C 115.210938 95.125 114.523438 95.070312 114.605469 94.417969 C 116.597656 93.09375 118.621094 91.8125 121.097656 91.117188 M 95.992188 47.503906 C 95 46.472656 90.28125 45.167969 90.417969 43.550781 C 90.65625 40.789062 97.75 41.984375 97.964844 38.765625 C 98.007812 38.113281 96.800781 36.949219 96.949219 36.015625 C 97.265625 34.050781 102.621094 34.710938 103.722656 35.375 C 102.40625 43.40625 103.167969 50.625 104.148438 57.519531 C 105.347656 65.941406 106.542969 74.019531 108.6875 81.4375 C 104.121094 82.3125 100.847656 84.144531 96.171875 84.347656 C 95.0625 81.679688 98.707031 78.246094 96.90625 75.578125 C 96.007812 74.242188 93.675781 74.242188 91.984375 73.332031 C 91.273438 70.5 94.394531 69.324219 95.140625 66.992188 C 94.824219 66.089844 94.703125 65.398438 94.445312 64.65625 C 93.539062 64.316406 93.246094 63.5625 92.3125 62.890625 C 90.550781 61.621094 87.550781 61.535156 86.15625 60.613281 C 85.335938 60.074219 85.136719 59.003906 85.628906 57.925781 C 87.203125 56.246094 90.4375 54.746094 92.640625 53.445312 C 93.175781 53.125 93.621094 52.683594 94.136719 52.382812 C 95.445312 51.621094 97.546875 51.371094 96.90625 49.117188 C 96.410156 48.613281 96.449219 47.972656 95.992188 47.503906 M 109.539062 81.542969 C 107.949219 77.769531 107.390625 73.308594 106.53125 69.054688 C 104.769531 60.328125 103.414062 51.050781 103.601562 42.222656 C 103.652344 39.839844 103.933594 37.550781 104.441406 34.589844 C 104.699219 33.105469 105.195312 30.976562 105.886719 30.03125 C 107.644531 27.625 111.234375 28.835938 112.765625 30.527344 C 113.097656 30.890625 113.476562 31.113281 113.753906 31.523438 C 116.984375 36.28125 113.152344 45.289062 113.558594 51.71875 C 113.859375 56.464844 114.582031 62.660156 115.796875 67.355469 C 116.5625 70.316406 117.929688 73.363281 119.011719 76.25 C 119.605469 77.835938 120.296875 79.207031 120.953125 80.488281 C 121.621094 81.792969 122.652344 83.117188 123.035156 84.621094 C 123.453125 86.257812 122.679688 87.90625 121.726562 89.074219 C 120.121094 89.003906 119.042969 89.957031 118.0625 90.609375 C 117.585938 90.925781 117.03125 91.140625 116.597656 91.421875 C 115.773438 91.960938 114.605469 93.136719 113.9375 92.835938 C 112.269531 89.347656 111.199219 85.480469 109.539062 81.542969 M 102.644531 34.113281 C 100.203125 34.203125 96.78125 32.976562 96.050781 35.277344 C 95.539062 36.894531 97.625 38.332031 95.890625 39.5 C 95.539062 39.734375 95.296875 39.644531 94.851562 39.867188 C 94.789062 39.902344 94.863281 40.191406 94.804688 40.238281 C 94.539062 40.445312 93.394531 40.726562 92.988281 40.882812 C 91.421875 41.46875 90.195312 41.804688 89.472656 43.183594 C 89.523438 43.734375 89.625 44.246094 89.636719 44.828125 C 90.988281 47.035156 96.230469 46.808594 95.957031 49.746094 C 95.78125 51.644531 92.59375 52.15625 90.929688 53.226562 C 89.984375 53.839844 89.238281 54.425781 88.363281 54.902344 C 87.417969 55.414062 86.429688 55.9375 85.8125 56.449219 C 85.214844 56.949219 83.464844 58.542969 83.5625 59.535156 C 83.621094 60.078125 85.210938 61.207031 86.03125 61.59375 C 88.101562 62.578125 90.234375 62.53125 91.855469 63.582031 C 92.554688 64.699219 94.054688 64.9375 94.105469 66.363281 C 94.199219 69.039062 89.984375 70.324219 90.960938 73.578125 C 92.460938 75.105469 95.414062 74.578125 96.324219 76.253906 C 97.925781 79.191406 92.992188 82.902344 95.925781 85.316406 C 100.363281 85.808594 104.171875 81.625 108.511719 83.785156 C 110.480469 87.933594 111.132812 93.109375 113.960938 96.582031 C 116.394531 102.980469 119.710938 108.984375 123.210938 115.601562 C 124.71875 118.457031 126.300781 121.667969 128.117188 124.832031 C 129.75 127.683594 131.683594 131.535156 134.566406 132.636719 C 138.53125 134.152344 142.800781 131.453125 145.527344 129.28125 C 146.09375 127.625 146.3125 125.839844 145.921875 124.210938 C 145.050781 120.597656 143.304688 116.976562 141.6875 113.566406 C 140.046875 110.101562 138.765625 106.351562 136.339844 103.902344 C 135.179688 101.011719 132.78125 98.109375 130.453125 95.546875 C 129.234375 94.199219 127.542969 92.292969 125.121094 92.625 C 124.535156 91.644531 123.902344 90.699219 123.390625 89.660156 C 124.488281 88.15625 125.171875 86.289062 124.46875 84.054688 C 124.113281 82.917969 123.304688 81.609375 122.691406 80.460938 C 122.003906 79.164062 121.640625 77.800781 120.902344 76.988281 C 120.652344 75.527344 120.175781 74.269531 119.671875 72.964844 C 119.191406 71.710938 118.867188 70.363281 118.308594 69.046875 C 118.085938 68.515625 117.570312 68.03125 117.398438 67.433594 C 117 66.050781 116.820312 64.1875 116.433594 62.316406 C 116.101562 60.734375 115.636719 58.894531 115.46875 57.203125 C 115.363281 56.167969 115.542969 55.035156 115.503906 53.960938 C 115.472656 52.984375 115.121094 52.007812 115.117188 51.167969 C 115.109375 50.402344 115.285156 49.535156 115.304688 48.695312 C 115.375 45.683594 116.1875 42.417969 116.710938 39.511719 C 117.492188 35.1875 115.433594 30.558594 112.984375 28.804688 C 111.519531 27.757812 110.042969 27.152344 107.863281 27.160156 C 104.722656 27.171875 102.570312 30.535156 102.644531 34.113281 "/>
</g>
</g>
</g>
</g>
</g>
</g>
<g clip-path="url(#clip52)" clip-rule="nonzero">
<g clip-path="url(#clip53)" clip-rule="nonzero">
<g clip-path="url(#clip54)" clip-rule="nonzero">
<g clip-path="url(#clip55)" clip-rule="nonzero">
<path style=" stroke:none;fill-rule:evenodd;fill:rgb(100%,94.509888%,55.288696%);fill-opacity:1;" d="M 96.90625 49.117188 C 97.546875 51.371094 95.445312 51.621094 94.136719 52.386719 C 93.621094 52.683594 93.175781 53.128906 92.640625 53.445312 C 90.4375 54.746094 87.203125 56.246094 85.628906 57.925781 C 85.136719 59.003906 85.335938 60.074219 86.15625 60.613281 C 87.554688 61.535156 90.550781 61.621094 92.3125 62.890625 C 93.25 63.5625 93.539062 64.316406 94.445312 64.65625 C 94.703125 65.402344 94.824219 66.089844 95.140625 66.992188 C 94.398438 69.324219 91.273438 70.5 91.984375 73.332031 C 93.675781 74.242188 96.007812 74.242188 96.90625 75.578125 C 98.707031 78.246094 95.0625 81.679688 96.171875 84.347656 C 100.847656 84.144531 104.125 82.3125 108.6875 81.4375 C 106.542969 74.023438 105.347656 65.941406 104.148438 57.519531 C 103.167969 50.625 102.40625 43.40625 103.722656 35.375 C 102.625 34.710938 97.265625 34.050781 96.949219 36.015625 C 96.800781 36.949219 98.007812 38.113281 97.964844 38.765625 C 97.75 41.984375 90.65625 40.792969 90.417969 43.550781 C 90.28125 45.171875 95 46.472656 95.992188 47.503906 C 96.449219 47.972656 96.410156 48.613281 96.90625 49.117188 "/>
</g>
</g>
</g>
</g>
</g>
</svg>
